<?xml version="1.0" standalone="no"?>
<!DOCTYPE svg PUBLIC "-//W3C//DTD SVG 20010904//EN"
 "http://www.w3.org/TR/2001/REC-SVG-20010904/DTD/svg10.dtd">
<svg version="1.0" xmlns="http://www.w3.org/2000/svg"
 width="454.000000pt" height="454.000000pt" viewBox="0 0 454.000000 454.000000"
 preserveAspectRatio="xMidYMid meet">
<metadata>
Created by potrace 1.11, written by Peter Selinger 2001-2013
</metadata>
<g transform="translate(0.000000,454.000000) scale(0.100000,-0.100000)"
fill="#000000" stroke="none">
<path d="M2149 4476 c-2 -2 -33 -6 -69 -9 -36 -3 -90 -11 -120 -17 -30 -6 -67
-13 -81 -15 -96 -17 -283 -101 -409 -183 -165 -108 -372 -293 -498 -445 -31
-38 -67 -81 -80 -95 -52 -59 -215 -317 -257 -404 -67 -143 -129 -339 -152
-484 -12 -79 -9 -304 5 -368 16 -70 79 -221 116 -277 14 -21 26 -41 26 -43 0
-2 -24 -2 -53 0 -122 10 -184 -58 -234 -259 -11 -43 -14 -182 -4 -202 5 -11
14 -47 21 -80 15 -76 82 -249 115 -297 14 -20 25 -41 25 -46 0 -18 83 -128
128 -170 57 -54 100 -73 177 -79 82 -6 81 -5 94 -59 12 -47 73 -174 95 -197 6
-7 23 -30 38 -52 92 -135 289 -278 483 -351 28 -10 88 -40 135 -67 190 -108
341 -167 495 -193 62 -10 213 -12 254 -3 20 4 52 10 71 14 80 13 231 69 325
121 55 30 182 95 282 143 216 106 274 143 363 231 87 87 151 184 199 306 l40
99 48 2 c91 5 153 33 219 98 98 97 211 307 253 470 20 78 31 244 19 300 -25
122 -44 169 -88 216 -41 43 -51 48 -105 55 -33 4 -66 7 -73 5 -9 -1 -8 7 5 30
48 84 61 116 106 244 32 95 30 356 -4 486 -5 20 -11 49 -13 65 -10 76 -145
423 -168 432 -4 2 -8 8 -8 13 0 18 -165 260 -215 315 -5 7 -26 31 -45 55 -77
98 -290 301 -432 414 -74 59 -300 179 -393 208 -54 18 -166 43 -229 52 -21 3
-42 8 -47 11 -10 6 -354 15 -360 10z"/>
</g>
</svg>
